<?xml version="1.0" encoding="UTF-8"?>
<svg id="Layer_2" xmlns="http://www.w3.org/2000/svg" viewBox="0 0 15.67 24.88">
  <g id="Layer_1-2" data-name="Layer_1">
    <path fill="rgb(11, 60, 134)" d="M15.67,5.97v-.36c0-3.39-2.62-5.61-6.55-5.61H1.34C.6,0,0,.6,0,1.34v18.32c0,.74.6,1.34,1.34,1.34h1.28c.74,0,1.34-.6,1.34-1.34v-5.24c0-.74.6-1.34,1.34-1.34h4.19c1.17,0,1.61.66,1.61,1.62v8.84c0,1.05,1.15,1.69,2.04,1.14l1.28-.79c.39-.24.63-.67.63-1.14v-8.61c0-1.68-.93-2.76-2.52-2.85v-.54c1.77-.72,3.13-2.25,3.13-4.77ZM11.7,6.69c0,1.68-1.14,2.79-3,2.79h-3.4c-.74,0-1.34-.6-1.34-1.34v-3.2c0-.74.6-1.34,1.34-1.34h3.4c1.92,0,3,1.11,3,2.79v.3Z"/>
  </g>
</svg>
